<?xml version="1.0" encoding="UTF-8" standalone="no"?>
<svg
   xmlns:dc="http://purl.org/dc/elements/1.1/"
   xmlns:cc="http://creativecommons.org/ns#"
   xmlns:rdf="http://www.w3.org/1999/02/22-rdf-syntax-ns#"
   xmlns:svg="http://www.w3.org/2000/svg"
   xmlns="http://www.w3.org/2000/svg"
   xmlns:sodipodi="http://sodipodi.sourceforge.net/DTD/sodipodi-0.dtd"
   xmlns:inkscape="http://www.inkscape.org/namespaces/inkscape"
   inkscape:version="1.0 (4035a4fb49, 2020-05-01)"
   sodipodi:docname="D3FullStack.svg"
   id="svg8"
   version="1.1"
   viewBox="200 0 4081.6327 4444.4444"
   height="1000"
   width="1000"
   class="D3FullStack">
  <metadata
     id="metadata14">
    <rdf:RDF>
      <cc:Work
         rdf:about="">
        <dc:format>image/svg+xml</dc:format>
        <dc:type
           rdf:resource="http://purl.org/dc/dcmitype/StillImage" />
        <dc:title></dc:title>
      </cc:Work>
    </rdf:RDF>
  </metadata>
  <defs
     id="defs12" />
  <sodipodi:namedview
     inkscape:current-layer="svg8"
     inkscape:window-maximized="1"
     inkscape:window-y="-8"
     inkscape:window-x="-8"
     inkscape:cy="501.06826"
     inkscape:cx="222.60123"
     inkscape:zoom="1.0704082"
     showgrid="false"
     id="namedview10"
     inkscape:window-height="1387"
     inkscape:window-width="3440"
     inkscape:pageshadow="2"
     inkscape:pageopacity="0"
     guidetolerance="10"
     gridtolerance="10"
     objecttolerance="10"
     borderopacity="1"
     bordercolor="#666666"
     pagecolor="#ffffff" />
  <path
     sodipodi:nodetypes="cccccccc"
     style="stroke-width:2.74308"
     id="path2"
     fill="#00c58e"
     d="m 427.51412,889.14624 c 72.67199,276.43716 273.31954,451.66516 166.29757,799.16126 -88.92126,288.4738 411.65341,809.9356 626.32481,621.1015 252.2521,-221.8724 558.8708,-171.9995 897.4335,-231.7189 319.8289,-56.3191 298.3519,-500.2746 157.9469,-775.2656 C 2101.5387,964.68985 2733.2192,580.07182 2062.5203,409.30396 1634.8837,298.24725 1429.2326,559.32862 978.76483,458.71872 679.84809,391.99183 298.79401,400.88502 427.51412,889.14624 Z" />
  <path
     sodipodi:nodetypes="cccccccc"
     style="stroke-width:3.24418"
     id="path4"
     fill="#108775"
     d="m 547.5518,2535.6201 c 65.16417,223.1688 130.93199,345.264 56.8285,662.38 -96.83324,413.3098 46.46795,593.8563 439.5093,612.4097 372.0107,17.3509 471.0811,-320.1546 912.7376,-150.5855 307.6284,116.8197 729.7442,-402.3188 635.8718,-784.6853 -90.6795,-382.6962 -149.4757,-709.0482 -536.4765,-884.6475 -417.9026,-190.0045 -700.8386,-405.9712 -1029.1033,2.4773 -154.60086,192.3158 -553.50037,287.5181 -479.3674,542.6513 z" />
  <path
     sodipodi:nodetypes="csccccc"
     style="fill:#ffe269;fill-opacity:1;stroke-width:1.07204"
     id="path6"
     fill="#2f495e"
     d="m 1870.5602,1947.3269 c 53.2395,214.7054 -39.0203,302.9424 35.0731,353.4715 148.5592,101.3121 46.481,171.0397 196.701,187.9165 96.9507,10.9656 265.9853,56.103 345.0864,-75.9575 74.6185,-125.823 12.9785,-204.5323 -2.2715,-405.809 -28.6452,-172.4315 -33.8698,-254.0885 -131.9664,-269.4369 -275.7899,-50.1104 -502.205,-30.951 -442.6226,209.8154 z" />
  <path
     d="m 2074.7138,652.59631 c -151.3588,251.47309 -108.4583,775.73149 88.7888,977.88889 250.519,256.8731 388.496,409.0857 678.5051,538.0595 332.0026,147.6647 1197.8043,178.8017 1125.4448,-202.6543 -35.3276,-186.4932 96.6903,-382.4586 -34.3002,-649.4308 C 3783.0336,1013.5826 4090.7119,747.24843 3801.4677,576.48057 3391.5375,331.9374 3029.6895,267.27045 2800.8601,421.65677 2589.1374,564.53084 2245.8524,367.78813 2074.7138,652.59631 Z"
     fill="#00c58e"
     id="path2-4"
     style="fill:#00788e;fill-opacity:1;stroke-width:2.89524"
     sodipodi:nodetypes="cccccccc" />
</svg>
